<svg width="539" height="539" xmlns="http://www.w3.org/2000/svg" xmlns:xlink="http://www.w3.org/1999/xlink" overflow="hidden"><g transform="translate(-365 -80)"><path d="M634.45 83C781.109 83 900 202.092 900 349 900 495.908 781.109 615 634.45 615 496.957 615 383.87 510.329 370.272 376.197L370 370.811 373.227 391.991C393.085 489.197 478.947 562.319 581.858 562.319 699.472 562.319 794.816 466.813 794.816 349 794.816 231.187 699.472 135.681 581.858 135.681 478.947 135.681 393.085 208.803 373.227 306.009L370 327.189 370.272 321.803C383.87 187.671 496.957 83 634.45 83Z" stroke="#2E8EA8" stroke-width="6" stroke-miterlimit="8" fill="#2E8EA8" fill-rule="evenodd"/><path d="M581.725 253C631.807 253 672.998 290.973 677.951 339.633L678 340.594 677.996 340.552C673.846 320.32 655.903 305.1 634.396 305.1 609.817 305.1 589.892 324.979 589.892 349.5 589.892 374.021 609.817 393.9 634.396 393.9 655.903 393.9 673.846 378.681 677.996 358.448L678 358.406 677.951 359.367C672.998 408.027 631.807 446 581.725 446 528.305 446 485 402.795 485 349.5 485 296.205 528.305 253 581.725 253Z" stroke="#2E8EA8" stroke-width="6" stroke-miterlimit="8" fill="#2E8EA8" fill-rule="evenodd"/><path d="M370 327 369 349C369 341.573 369.339 334.234 370 327.001L370 327Z" stroke="#2E8EA8" stroke-width="6" stroke-miterlimit="8" fill="#2E8EA8" fill-rule="evenodd"/><path d="M678 340 679 349 678 358 678.501 349 678 340Z" stroke="#2E8EA8" stroke-width="6" stroke-miterlimit="8" fill="#2E8EA8" fill-rule="evenodd"/><path d="M369 349 370 371 370 370.999C369.339 363.766 369 356.427 369 349Z" stroke="#2E8EA8" stroke-width="6" stroke-miterlimit="8" fill="#2E8EA8" fill-rule="evenodd"/></g></svg>